<mxfile host="app.diagrams.net" modified="2021-12-29T15:58:33.239Z" agent="5.0 (Macintosh; Intel Mac OS X 10_15_7) AppleWebKit/605.1.15 (KHTML, like Gecko) Version/15.2 Safari/605.1.15" etag="vWa8VLQVv5yQUeSCFESa" version="16.1.0" type="github">
  <diagram id="x-ebNuNaO6uSMXfWyloz" name="normalization v2">
    <mxGraphModel dx="711" dy="717" grid="1" gridSize="10" guides="1" tooltips="1" connect="1" arrows="1" fold="1" page="1" pageScale="1" pageWidth="827" pageHeight="1169" math="0" shadow="0">
      <root>
        <mxCell id="I8PAkS4NoRZ0HZzqsZVm-0" />
        <mxCell id="I8PAkS4NoRZ0HZzqsZVm-1" parent="I8PAkS4NoRZ0HZzqsZVm-0" />
        <mxCell id="dKyvRn0tBp2sTU8OZSxu-0" value="Clients" style="text;html=1;strokeColor=none;fillColor=none;align=center;verticalAlign=middle;whiteSpace=wrap;rounded=0;" parent="I8PAkS4NoRZ0HZzqsZVm-1" vertex="1">
          <mxGeometry x="30" y="10" width="60" height="30" as="geometry" />
        </mxCell>
        <mxCell id="dKyvRn0tBp2sTU8OZSxu-1" value="personal_number" style="rounded=1;whiteSpace=wrap;html=1;" parent="I8PAkS4NoRZ0HZzqsZVm-1" vertex="1">
          <mxGeometry x="10" y="40" width="100" height="30" as="geometry" />
        </mxCell>
        <mxCell id="dKyvRn0tBp2sTU8OZSxu-2" value="First_name" style="rounded=1;whiteSpace=wrap;html=1;" parent="I8PAkS4NoRZ0HZzqsZVm-1" vertex="1">
          <mxGeometry x="10" y="80" width="100" height="30" as="geometry" />
        </mxCell>
        <mxCell id="dKyvRn0tBp2sTU8OZSxu-3" value="Last_name" style="rounded=1;whiteSpace=wrap;html=1;" parent="I8PAkS4NoRZ0HZzqsZVm-1" vertex="1">
          <mxGeometry x="10" y="120" width="100" height="30" as="geometry" />
        </mxCell>
        <mxCell id="dKyvRn0tBp2sTU8OZSxu-4" value="Phone_number" style="rounded=1;whiteSpace=wrap;html=1;" parent="I8PAkS4NoRZ0HZzqsZVm-1" vertex="1">
          <mxGeometry x="10" y="160" width="100" height="30" as="geometry" />
        </mxCell>
        <mxCell id="dKyvRn0tBp2sTU8OZSxu-5" value="Email" style="rounded=1;whiteSpace=wrap;html=1;" parent="I8PAkS4NoRZ0HZzqsZVm-1" vertex="1">
          <mxGeometry x="10" y="200" width="100" height="30" as="geometry" />
        </mxCell>
        <mxCell id="dKyvRn0tBp2sTU8OZSxu-6" value="Bank_account" style="rounded=1;whiteSpace=wrap;html=1;" parent="I8PAkS4NoRZ0HZzqsZVm-1" vertex="1">
          <mxGeometry x="10" y="240" width="100" height="30" as="geometry" />
        </mxCell>
        <mxCell id="dKyvRn0tBp2sTU8OZSxu-7" value="Address_id" style="rounded=1;whiteSpace=wrap;html=1;" parent="I8PAkS4NoRZ0HZzqsZVm-1" vertex="1">
          <mxGeometry x="10" y="280" width="100" height="30" as="geometry" />
        </mxCell>
        <mxCell id="dKyvRn0tBp2sTU8OZSxu-9" value="" style="endArrow=classic;html=1;rounded=0;" parent="I8PAkS4NoRZ0HZzqsZVm-1" edge="1">
          <mxGeometry width="50" height="50" relative="1" as="geometry">
            <mxPoint x="120" y="50" as="sourcePoint" />
            <mxPoint x="110" y="90" as="targetPoint" />
            <Array as="points">
              <mxPoint x="120" y="90" />
            </Array>
          </mxGeometry>
        </mxCell>
        <mxCell id="dKyvRn0tBp2sTU8OZSxu-11" value="" style="endArrow=none;html=1;rounded=0;exitX=1.002;exitY=0.343;exitDx=0;exitDy=0;exitPerimeter=0;" parent="I8PAkS4NoRZ0HZzqsZVm-1" source="dKyvRn0tBp2sTU8OZSxu-1" edge="1">
          <mxGeometry width="50" height="50" relative="1" as="geometry">
            <mxPoint x="110" y="120" as="sourcePoint" />
            <mxPoint x="170" y="50" as="targetPoint" />
          </mxGeometry>
        </mxCell>
        <mxCell id="dKyvRn0tBp2sTU8OZSxu-12" value="" style="endArrow=classic;html=1;rounded=0;" parent="I8PAkS4NoRZ0HZzqsZVm-1" edge="1">
          <mxGeometry width="50" height="50" relative="1" as="geometry">
            <mxPoint x="130" y="50" as="sourcePoint" />
            <mxPoint x="110" y="130" as="targetPoint" />
            <Array as="points">
              <mxPoint x="130" y="130" />
            </Array>
          </mxGeometry>
        </mxCell>
        <mxCell id="dKyvRn0tBp2sTU8OZSxu-13" value="" style="endArrow=classic;html=1;rounded=0;entryX=1;entryY=0.333;entryDx=0;entryDy=0;entryPerimeter=0;" parent="I8PAkS4NoRZ0HZzqsZVm-1" target="dKyvRn0tBp2sTU8OZSxu-4" edge="1">
          <mxGeometry width="50" height="50" relative="1" as="geometry">
            <mxPoint x="140" y="50" as="sourcePoint" />
            <mxPoint x="118.59999999999997" y="140.11" as="targetPoint" />
            <Array as="points">
              <mxPoint x="140" y="170" />
            </Array>
          </mxGeometry>
        </mxCell>
        <mxCell id="dKyvRn0tBp2sTU8OZSxu-14" value="" style="endArrow=classic;html=1;rounded=0;entryX=1.005;entryY=0.336;entryDx=0;entryDy=0;entryPerimeter=0;" parent="I8PAkS4NoRZ0HZzqsZVm-1" target="dKyvRn0tBp2sTU8OZSxu-5" edge="1">
          <mxGeometry width="50" height="50" relative="1" as="geometry">
            <mxPoint x="150" y="50" as="sourcePoint" />
            <mxPoint x="128.59999999999997" y="130.11" as="targetPoint" />
            <Array as="points">
              <mxPoint x="150" y="210" />
            </Array>
          </mxGeometry>
        </mxCell>
        <mxCell id="dKyvRn0tBp2sTU8OZSxu-15" value="" style="endArrow=classic;html=1;rounded=0;entryX=1.009;entryY=0.304;entryDx=0;entryDy=0;entryPerimeter=0;" parent="I8PAkS4NoRZ0HZzqsZVm-1" target="dKyvRn0tBp2sTU8OZSxu-6" edge="1">
          <mxGeometry width="50" height="50" relative="1" as="geometry">
            <mxPoint x="160" y="50" as="sourcePoint" />
            <mxPoint x="138.59999999999997" y="130.11" as="targetPoint" />
            <Array as="points">
              <mxPoint x="160" y="249" />
            </Array>
          </mxGeometry>
        </mxCell>
        <mxCell id="dKyvRn0tBp2sTU8OZSxu-16" value="" style="endArrow=classic;html=1;rounded=0;entryX=1.015;entryY=0.368;entryDx=0;entryDy=0;entryPerimeter=0;" parent="I8PAkS4NoRZ0HZzqsZVm-1" target="dKyvRn0tBp2sTU8OZSxu-7" edge="1">
          <mxGeometry width="50" height="50" relative="1" as="geometry">
            <mxPoint x="170" y="50" as="sourcePoint" />
            <mxPoint x="148.59999999999997" y="170.11" as="targetPoint" />
            <Array as="points">
              <mxPoint x="170" y="291" />
            </Array>
          </mxGeometry>
        </mxCell>
        <mxCell id="dKyvRn0tBp2sTU8OZSxu-17" value="&lt;font style=&quot;font-size: 10px&quot;&gt;registration_number&lt;/font&gt;" style="rounded=1;whiteSpace=wrap;html=1;" parent="I8PAkS4NoRZ0HZzqsZVm-1" vertex="1">
          <mxGeometry x="190" y="40" width="100" height="30" as="geometry" />
        </mxCell>
        <mxCell id="dKyvRn0tBp2sTU8OZSxu-18" value="Name" style="rounded=1;whiteSpace=wrap;html=1;" parent="I8PAkS4NoRZ0HZzqsZVm-1" vertex="1">
          <mxGeometry x="190" y="80" width="100" height="30" as="geometry" />
        </mxCell>
        <mxCell id="dKyvRn0tBp2sTU8OZSxu-19" value="Email" style="rounded=1;whiteSpace=wrap;html=1;" parent="I8PAkS4NoRZ0HZzqsZVm-1" vertex="1">
          <mxGeometry x="190" y="120" width="100" height="30" as="geometry" />
        </mxCell>
        <mxCell id="dKyvRn0tBp2sTU8OZSxu-20" value="Phone_number" style="rounded=1;whiteSpace=wrap;html=1;" parent="I8PAkS4NoRZ0HZzqsZVm-1" vertex="1">
          <mxGeometry x="190" y="160" width="100" height="30" as="geometry" />
        </mxCell>
        <mxCell id="dKyvRn0tBp2sTU8OZSxu-21" value="Bank_account" style="rounded=1;whiteSpace=wrap;html=1;" parent="I8PAkS4NoRZ0HZzqsZVm-1" vertex="1">
          <mxGeometry x="190" y="200" width="100" height="30" as="geometry" />
        </mxCell>
        <mxCell id="dKyvRn0tBp2sTU8OZSxu-22" value="Address_id" style="rounded=1;whiteSpace=wrap;html=1;" parent="I8PAkS4NoRZ0HZzqsZVm-1" vertex="1">
          <mxGeometry x="190" y="240" width="100" height="30" as="geometry" />
        </mxCell>
        <mxCell id="dKyvRn0tBp2sTU8OZSxu-24" value="" style="endArrow=classic;html=1;rounded=0;" parent="I8PAkS4NoRZ0HZzqsZVm-1" edge="1">
          <mxGeometry width="50" height="50" relative="1" as="geometry">
            <mxPoint x="300" y="50" as="sourcePoint" />
            <mxPoint x="290" y="90" as="targetPoint" />
            <Array as="points">
              <mxPoint x="300" y="90" />
            </Array>
          </mxGeometry>
        </mxCell>
        <mxCell id="dKyvRn0tBp2sTU8OZSxu-25" value="" style="endArrow=none;html=1;rounded=0;exitX=1.002;exitY=0.343;exitDx=0;exitDy=0;exitPerimeter=0;" parent="I8PAkS4NoRZ0HZzqsZVm-1" source="dKyvRn0tBp2sTU8OZSxu-17" edge="1">
          <mxGeometry width="50" height="50" relative="1" as="geometry">
            <mxPoint x="290" y="120" as="sourcePoint" />
            <mxPoint x="340" y="50" as="targetPoint" />
          </mxGeometry>
        </mxCell>
        <mxCell id="dKyvRn0tBp2sTU8OZSxu-26" value="" style="endArrow=classic;html=1;rounded=0;" parent="I8PAkS4NoRZ0HZzqsZVm-1" edge="1">
          <mxGeometry width="50" height="50" relative="1" as="geometry">
            <mxPoint x="310" y="50" as="sourcePoint" />
            <mxPoint x="290" y="130" as="targetPoint" />
            <Array as="points">
              <mxPoint x="310" y="130" />
            </Array>
          </mxGeometry>
        </mxCell>
        <mxCell id="dKyvRn0tBp2sTU8OZSxu-27" value="" style="endArrow=classic;html=1;rounded=0;entryX=1;entryY=0.333;entryDx=0;entryDy=0;entryPerimeter=0;" parent="I8PAkS4NoRZ0HZzqsZVm-1" target="dKyvRn0tBp2sTU8OZSxu-20" edge="1">
          <mxGeometry width="50" height="50" relative="1" as="geometry">
            <mxPoint x="320" y="50" as="sourcePoint" />
            <mxPoint x="298.59999999999997" y="140.11" as="targetPoint" />
            <Array as="points">
              <mxPoint x="320" y="170" />
            </Array>
          </mxGeometry>
        </mxCell>
        <mxCell id="dKyvRn0tBp2sTU8OZSxu-28" value="" style="endArrow=classic;html=1;rounded=0;entryX=1.005;entryY=0.336;entryDx=0;entryDy=0;entryPerimeter=0;" parent="I8PAkS4NoRZ0HZzqsZVm-1" target="dKyvRn0tBp2sTU8OZSxu-21" edge="1">
          <mxGeometry width="50" height="50" relative="1" as="geometry">
            <mxPoint x="330" y="50" as="sourcePoint" />
            <mxPoint x="308.59999999999997" y="130.11" as="targetPoint" />
            <Array as="points">
              <mxPoint x="330" y="210" />
            </Array>
          </mxGeometry>
        </mxCell>
        <mxCell id="dKyvRn0tBp2sTU8OZSxu-29" value="" style="endArrow=classic;html=1;rounded=0;entryX=1.009;entryY=0.304;entryDx=0;entryDy=0;entryPerimeter=0;" parent="I8PAkS4NoRZ0HZzqsZVm-1" target="dKyvRn0tBp2sTU8OZSxu-22" edge="1">
          <mxGeometry width="50" height="50" relative="1" as="geometry">
            <mxPoint x="340" y="50" as="sourcePoint" />
            <mxPoint x="318.59999999999997" y="130.11" as="targetPoint" />
            <Array as="points">
              <mxPoint x="340" y="249" />
            </Array>
          </mxGeometry>
        </mxCell>
        <mxCell id="dKyvRn0tBp2sTU8OZSxu-31" value="SellerCompany" style="text;html=1;strokeColor=none;fillColor=none;align=center;verticalAlign=middle;whiteSpace=wrap;rounded=0;" parent="I8PAkS4NoRZ0HZzqsZVm-1" vertex="1">
          <mxGeometry x="210" y="10" width="60" height="30" as="geometry" />
        </mxCell>
        <mxCell id="dKyvRn0tBp2sTU8OZSxu-46" value="&lt;font style=&quot;font-size: 12px&quot;&gt;country_id&lt;/font&gt;" style="rounded=1;whiteSpace=wrap;html=1;" parent="I8PAkS4NoRZ0HZzqsZVm-1" vertex="1">
          <mxGeometry x="360" y="40" width="100" height="30" as="geometry" />
        </mxCell>
        <mxCell id="dKyvRn0tBp2sTU8OZSxu-47" value="Country_name" style="rounded=1;whiteSpace=wrap;html=1;" parent="I8PAkS4NoRZ0HZzqsZVm-1" vertex="1">
          <mxGeometry x="360" y="80" width="100" height="30" as="geometry" />
        </mxCell>
        <mxCell id="dKyvRn0tBp2sTU8OZSxu-52" value="" style="endArrow=classic;html=1;rounded=0;" parent="I8PAkS4NoRZ0HZzqsZVm-1" edge="1">
          <mxGeometry width="50" height="50" relative="1" as="geometry">
            <mxPoint x="470" y="50" as="sourcePoint" />
            <mxPoint x="460" y="90" as="targetPoint" />
            <Array as="points">
              <mxPoint x="470" y="90" />
            </Array>
          </mxGeometry>
        </mxCell>
        <mxCell id="dKyvRn0tBp2sTU8OZSxu-53" value="" style="endArrow=none;html=1;rounded=0;exitX=1.002;exitY=0.343;exitDx=0;exitDy=0;exitPerimeter=0;" parent="I8PAkS4NoRZ0HZzqsZVm-1" source="dKyvRn0tBp2sTU8OZSxu-46" edge="1">
          <mxGeometry width="50" height="50" relative="1" as="geometry">
            <mxPoint x="460" y="120" as="sourcePoint" />
            <mxPoint x="470" y="50" as="targetPoint" />
          </mxGeometry>
        </mxCell>
        <mxCell id="dKyvRn0tBp2sTU8OZSxu-58" value="Country" style="text;html=1;strokeColor=none;fillColor=none;align=center;verticalAlign=middle;whiteSpace=wrap;rounded=0;" parent="I8PAkS4NoRZ0HZzqsZVm-1" vertex="1">
          <mxGeometry x="380" y="10" width="60" height="30" as="geometry" />
        </mxCell>
        <mxCell id="dKyvRn0tBp2sTU8OZSxu-59" value="&lt;font style=&quot;font-size: 12px&quot;&gt;city_id&lt;/font&gt;" style="rounded=1;whiteSpace=wrap;html=1;" parent="I8PAkS4NoRZ0HZzqsZVm-1" vertex="1">
          <mxGeometry x="360" y="160" width="100" height="30" as="geometry" />
        </mxCell>
        <mxCell id="dKyvRn0tBp2sTU8OZSxu-60" value="City_name" style="rounded=1;whiteSpace=wrap;html=1;" parent="I8PAkS4NoRZ0HZzqsZVm-1" vertex="1">
          <mxGeometry x="360" y="200" width="100" height="30" as="geometry" />
        </mxCell>
        <mxCell id="dKyvRn0tBp2sTU8OZSxu-61" value="" style="endArrow=classic;html=1;rounded=0;" parent="I8PAkS4NoRZ0HZzqsZVm-1" edge="1">
          <mxGeometry width="50" height="50" relative="1" as="geometry">
            <mxPoint x="470" y="170" as="sourcePoint" />
            <mxPoint x="460" y="210" as="targetPoint" />
            <Array as="points">
              <mxPoint x="470" y="210" />
            </Array>
          </mxGeometry>
        </mxCell>
        <mxCell id="dKyvRn0tBp2sTU8OZSxu-62" value="" style="endArrow=none;html=1;rounded=0;exitX=1.002;exitY=0.343;exitDx=0;exitDy=0;exitPerimeter=0;" parent="I8PAkS4NoRZ0HZzqsZVm-1" source="dKyvRn0tBp2sTU8OZSxu-59" edge="1">
          <mxGeometry width="50" height="50" relative="1" as="geometry">
            <mxPoint x="460" y="240" as="sourcePoint" />
            <mxPoint x="470" y="170" as="targetPoint" />
          </mxGeometry>
        </mxCell>
        <mxCell id="dKyvRn0tBp2sTU8OZSxu-63" value="City" style="text;html=1;strokeColor=none;fillColor=none;align=center;verticalAlign=middle;whiteSpace=wrap;rounded=0;" parent="I8PAkS4NoRZ0HZzqsZVm-1" vertex="1">
          <mxGeometry x="380" y="130" width="60" height="30" as="geometry" />
        </mxCell>
        <mxCell id="dKyvRn0tBp2sTU8OZSxu-64" value="Address" style="text;html=1;strokeColor=none;fillColor=none;align=center;verticalAlign=middle;whiteSpace=wrap;rounded=0;" parent="I8PAkS4NoRZ0HZzqsZVm-1" vertex="1">
          <mxGeometry x="510" y="10" width="60" height="30" as="geometry" />
        </mxCell>
        <mxCell id="dKyvRn0tBp2sTU8OZSxu-65" value="Address_id" style="rounded=1;whiteSpace=wrap;html=1;" parent="I8PAkS4NoRZ0HZzqsZVm-1" vertex="1">
          <mxGeometry x="490" y="40" width="100" height="30" as="geometry" />
        </mxCell>
        <mxCell id="dKyvRn0tBp2sTU8OZSxu-66" value="Country" style="rounded=1;whiteSpace=wrap;html=1;" parent="I8PAkS4NoRZ0HZzqsZVm-1" vertex="1">
          <mxGeometry x="490" y="80" width="100" height="30" as="geometry" />
        </mxCell>
        <mxCell id="dKyvRn0tBp2sTU8OZSxu-67" value="City" style="rounded=1;whiteSpace=wrap;html=1;" parent="I8PAkS4NoRZ0HZzqsZVm-1" vertex="1">
          <mxGeometry x="490" y="120" width="100" height="30" as="geometry" />
        </mxCell>
        <mxCell id="dKyvRn0tBp2sTU8OZSxu-68" value="Street_name" style="rounded=1;whiteSpace=wrap;html=1;" parent="I8PAkS4NoRZ0HZzqsZVm-1" vertex="1">
          <mxGeometry x="490" y="160" width="100" height="30" as="geometry" />
        </mxCell>
        <mxCell id="dKyvRn0tBp2sTU8OZSxu-69" value="Street_number" style="rounded=1;whiteSpace=wrap;html=1;" parent="I8PAkS4NoRZ0HZzqsZVm-1" vertex="1">
          <mxGeometry x="490" y="200" width="100" height="30" as="geometry" />
        </mxCell>
        <mxCell id="dKyvRn0tBp2sTU8OZSxu-70" value="Zip" style="rounded=1;whiteSpace=wrap;html=1;" parent="I8PAkS4NoRZ0HZzqsZVm-1" vertex="1">
          <mxGeometry x="490" y="240" width="100" height="30" as="geometry" />
        </mxCell>
        <mxCell id="dKyvRn0tBp2sTU8OZSxu-72" value="" style="endArrow=classic;html=1;rounded=0;" parent="I8PAkS4NoRZ0HZzqsZVm-1" edge="1">
          <mxGeometry width="50" height="50" relative="1" as="geometry">
            <mxPoint x="600" y="50" as="sourcePoint" />
            <mxPoint x="590" y="90" as="targetPoint" />
            <Array as="points">
              <mxPoint x="600" y="90" />
            </Array>
          </mxGeometry>
        </mxCell>
        <mxCell id="dKyvRn0tBp2sTU8OZSxu-73" value="" style="endArrow=none;html=1;rounded=0;exitX=1.002;exitY=0.343;exitDx=0;exitDy=0;exitPerimeter=0;" parent="I8PAkS4NoRZ0HZzqsZVm-1" source="dKyvRn0tBp2sTU8OZSxu-65" edge="1">
          <mxGeometry width="50" height="50" relative="1" as="geometry">
            <mxPoint x="590" y="120" as="sourcePoint" />
            <mxPoint x="640" y="50" as="targetPoint" />
          </mxGeometry>
        </mxCell>
        <mxCell id="dKyvRn0tBp2sTU8OZSxu-74" value="" style="endArrow=classic;html=1;rounded=0;" parent="I8PAkS4NoRZ0HZzqsZVm-1" edge="1">
          <mxGeometry width="50" height="50" relative="1" as="geometry">
            <mxPoint x="610" y="50" as="sourcePoint" />
            <mxPoint x="590" y="130" as="targetPoint" />
            <Array as="points">
              <mxPoint x="610" y="130" />
            </Array>
          </mxGeometry>
        </mxCell>
        <mxCell id="dKyvRn0tBp2sTU8OZSxu-75" value="" style="endArrow=classic;html=1;rounded=0;entryX=1;entryY=0.333;entryDx=0;entryDy=0;entryPerimeter=0;" parent="I8PAkS4NoRZ0HZzqsZVm-1" target="dKyvRn0tBp2sTU8OZSxu-68" edge="1">
          <mxGeometry width="50" height="50" relative="1" as="geometry">
            <mxPoint x="620" y="50" as="sourcePoint" />
            <mxPoint x="598.5999999999999" y="140.11" as="targetPoint" />
            <Array as="points">
              <mxPoint x="620" y="170" />
            </Array>
          </mxGeometry>
        </mxCell>
        <mxCell id="dKyvRn0tBp2sTU8OZSxu-76" value="" style="endArrow=classic;html=1;rounded=0;entryX=1.005;entryY=0.336;entryDx=0;entryDy=0;entryPerimeter=0;" parent="I8PAkS4NoRZ0HZzqsZVm-1" target="dKyvRn0tBp2sTU8OZSxu-69" edge="1">
          <mxGeometry width="50" height="50" relative="1" as="geometry">
            <mxPoint x="630" y="50" as="sourcePoint" />
            <mxPoint x="608.5999999999999" y="130.11" as="targetPoint" />
            <Array as="points">
              <mxPoint x="630" y="210" />
            </Array>
          </mxGeometry>
        </mxCell>
        <mxCell id="dKyvRn0tBp2sTU8OZSxu-77" value="" style="endArrow=classic;html=1;rounded=0;entryX=1.009;entryY=0.304;entryDx=0;entryDy=0;entryPerimeter=0;" parent="I8PAkS4NoRZ0HZzqsZVm-1" target="dKyvRn0tBp2sTU8OZSxu-70" edge="1">
          <mxGeometry width="50" height="50" relative="1" as="geometry">
            <mxPoint x="640" y="50" as="sourcePoint" />
            <mxPoint x="618.5999999999999" y="130.11" as="targetPoint" />
            <Array as="points">
              <mxPoint x="640" y="249" />
            </Array>
          </mxGeometry>
        </mxCell>
        <mxCell id="dKyvRn0tBp2sTU8OZSxu-79" value="Orders" style="text;html=1;strokeColor=none;fillColor=none;align=center;verticalAlign=middle;whiteSpace=wrap;rounded=0;" parent="I8PAkS4NoRZ0HZzqsZVm-1" vertex="1">
          <mxGeometry x="680" y="10" width="60" height="30" as="geometry" />
        </mxCell>
        <mxCell id="dKyvRn0tBp2sTU8OZSxu-80" value="order_id" style="rounded=1;whiteSpace=wrap;html=1;" parent="I8PAkS4NoRZ0HZzqsZVm-1" vertex="1">
          <mxGeometry x="660" y="40" width="100" height="30" as="geometry" />
        </mxCell>
        <mxCell id="dKyvRn0tBp2sTU8OZSxu-81" value="Client_id" style="rounded=1;whiteSpace=wrap;html=1;" parent="I8PAkS4NoRZ0HZzqsZVm-1" vertex="1">
          <mxGeometry x="660" y="80" width="100" height="30" as="geometry" />
        </mxCell>
        <mxCell id="dKyvRn0tBp2sTU8OZSxu-82" value="Seller_id" style="rounded=1;whiteSpace=wrap;html=1;" parent="I8PAkS4NoRZ0HZzqsZVm-1" vertex="1">
          <mxGeometry x="660" y="120" width="100" height="30" as="geometry" />
        </mxCell>
        <mxCell id="dKyvRn0tBp2sTU8OZSxu-83" value="Offer_id" style="rounded=1;whiteSpace=wrap;html=1;" parent="I8PAkS4NoRZ0HZzqsZVm-1" vertex="1">
          <mxGeometry x="660" y="160" width="100" height="30" as="geometry" />
        </mxCell>
        <mxCell id="dKyvRn0tBp2sTU8OZSxu-86" value="" style="endArrow=classic;html=1;rounded=0;" parent="I8PAkS4NoRZ0HZzqsZVm-1" edge="1">
          <mxGeometry width="50" height="50" relative="1" as="geometry">
            <mxPoint x="770" y="50" as="sourcePoint" />
            <mxPoint x="760" y="90" as="targetPoint" />
            <Array as="points">
              <mxPoint x="770" y="90" />
            </Array>
          </mxGeometry>
        </mxCell>
        <mxCell id="dKyvRn0tBp2sTU8OZSxu-87" value="" style="endArrow=none;html=1;rounded=0;exitX=1.002;exitY=0.343;exitDx=0;exitDy=0;exitPerimeter=0;" parent="I8PAkS4NoRZ0HZzqsZVm-1" source="dKyvRn0tBp2sTU8OZSxu-80" edge="1">
          <mxGeometry width="50" height="50" relative="1" as="geometry">
            <mxPoint x="760" y="120" as="sourcePoint" />
            <mxPoint x="790" y="50" as="targetPoint" />
          </mxGeometry>
        </mxCell>
        <mxCell id="dKyvRn0tBp2sTU8OZSxu-88" value="" style="endArrow=classic;html=1;rounded=0;" parent="I8PAkS4NoRZ0HZzqsZVm-1" edge="1">
          <mxGeometry width="50" height="50" relative="1" as="geometry">
            <mxPoint x="780" y="50" as="sourcePoint" />
            <mxPoint x="760" y="130" as="targetPoint" />
            <Array as="points">
              <mxPoint x="780" y="130" />
            </Array>
          </mxGeometry>
        </mxCell>
        <mxCell id="dKyvRn0tBp2sTU8OZSxu-89" value="" style="endArrow=classic;html=1;rounded=0;entryX=1;entryY=0.333;entryDx=0;entryDy=0;entryPerimeter=0;" parent="I8PAkS4NoRZ0HZzqsZVm-1" target="dKyvRn0tBp2sTU8OZSxu-83" edge="1">
          <mxGeometry width="50" height="50" relative="1" as="geometry">
            <mxPoint x="790" y="50" as="sourcePoint" />
            <mxPoint x="768.5999999999999" y="140.11" as="targetPoint" />
            <Array as="points">
              <mxPoint x="790" y="170" />
            </Array>
          </mxGeometry>
        </mxCell>
        <mxCell id="dKyvRn0tBp2sTU8OZSxu-92" value="VehicleOffers" style="text;html=1;strokeColor=none;fillColor=none;align=center;verticalAlign=middle;whiteSpace=wrap;rounded=0;" parent="I8PAkS4NoRZ0HZzqsZVm-1" vertex="1">
          <mxGeometry x="30" y="320" width="60" height="30" as="geometry" />
        </mxCell>
        <mxCell id="dKyvRn0tBp2sTU8OZSxu-93" value="Offer_id" style="rounded=1;whiteSpace=wrap;html=1;" parent="I8PAkS4NoRZ0HZzqsZVm-1" vertex="1">
          <mxGeometry x="10" y="350" width="100" height="30" as="geometry" />
        </mxCell>
        <mxCell id="dKyvRn0tBp2sTU8OZSxu-94" value="Vehicle" style="rounded=1;whiteSpace=wrap;html=1;" parent="I8PAkS4NoRZ0HZzqsZVm-1" vertex="1">
          <mxGeometry x="10" y="390" width="100" height="30" as="geometry" />
        </mxCell>
        <mxCell id="dKyvRn0tBp2sTU8OZSxu-95" value="Retail_price" style="rounded=1;whiteSpace=wrap;html=1;" parent="I8PAkS4NoRZ0HZzqsZVm-1" vertex="1">
          <mxGeometry x="10" y="430" width="100" height="30" as="geometry" />
        </mxCell>
        <mxCell id="dKyvRn0tBp2sTU8OZSxu-96" value="Selling_price" style="rounded=1;whiteSpace=wrap;html=1;" parent="I8PAkS4NoRZ0HZzqsZVm-1" vertex="1">
          <mxGeometry x="10" y="470" width="100" height="30" as="geometry" />
        </mxCell>
        <mxCell id="dKyvRn0tBp2sTU8OZSxu-100" value="" style="endArrow=classic;html=1;rounded=0;" parent="I8PAkS4NoRZ0HZzqsZVm-1" edge="1">
          <mxGeometry width="50" height="50" relative="1" as="geometry">
            <mxPoint x="120.00000000000006" y="360" as="sourcePoint" />
            <mxPoint x="110.00000000000006" y="400" as="targetPoint" />
            <Array as="points">
              <mxPoint x="120" y="400" />
            </Array>
          </mxGeometry>
        </mxCell>
        <mxCell id="dKyvRn0tBp2sTU8OZSxu-101" value="" style="endArrow=none;html=1;rounded=0;exitX=1.002;exitY=0.343;exitDx=0;exitDy=0;exitPerimeter=0;" parent="I8PAkS4NoRZ0HZzqsZVm-1" source="dKyvRn0tBp2sTU8OZSxu-93" edge="1">
          <mxGeometry width="50" height="50" relative="1" as="geometry">
            <mxPoint x="110" y="430" as="sourcePoint" />
            <mxPoint x="140" y="360" as="targetPoint" />
          </mxGeometry>
        </mxCell>
        <mxCell id="dKyvRn0tBp2sTU8OZSxu-102" value="" style="endArrow=classic;html=1;rounded=0;" parent="I8PAkS4NoRZ0HZzqsZVm-1" edge="1">
          <mxGeometry width="50" height="50" relative="1" as="geometry">
            <mxPoint x="130" y="360" as="sourcePoint" />
            <mxPoint x="110.00000000000006" y="440" as="targetPoint" />
            <Array as="points">
              <mxPoint x="130" y="440" />
            </Array>
          </mxGeometry>
        </mxCell>
        <mxCell id="dKyvRn0tBp2sTU8OZSxu-103" value="" style="endArrow=classic;html=1;rounded=0;entryX=1;entryY=0.333;entryDx=0;entryDy=0;entryPerimeter=0;" parent="I8PAkS4NoRZ0HZzqsZVm-1" target="dKyvRn0tBp2sTU8OZSxu-96" edge="1">
          <mxGeometry width="50" height="50" relative="1" as="geometry">
            <mxPoint x="140" y="360" as="sourcePoint" />
            <mxPoint x="118.59999999999997" y="450.11" as="targetPoint" />
            <Array as="points">
              <mxPoint x="140" y="480" />
            </Array>
          </mxGeometry>
        </mxCell>
        <mxCell id="dKyvRn0tBp2sTU8OZSxu-107" value="&lt;font style=&quot;font-size: 12px&quot;&gt;brand_id&lt;/font&gt;" style="rounded=1;whiteSpace=wrap;html=1;" parent="I8PAkS4NoRZ0HZzqsZVm-1" vertex="1">
          <mxGeometry x="160" y="350" width="100" height="30" as="geometry" />
        </mxCell>
        <mxCell id="dKyvRn0tBp2sTU8OZSxu-108" value="Brand_name" style="rounded=1;whiteSpace=wrap;html=1;" parent="I8PAkS4NoRZ0HZzqsZVm-1" vertex="1">
          <mxGeometry x="160" y="390" width="100" height="30" as="geometry" />
        </mxCell>
        <mxCell id="dKyvRn0tBp2sTU8OZSxu-109" value="" style="endArrow=classic;html=1;rounded=0;" parent="I8PAkS4NoRZ0HZzqsZVm-1" edge="1">
          <mxGeometry width="50" height="50" relative="1" as="geometry">
            <mxPoint x="270" y="360" as="sourcePoint" />
            <mxPoint x="260" y="400" as="targetPoint" />
            <Array as="points">
              <mxPoint x="270" y="400" />
            </Array>
          </mxGeometry>
        </mxCell>
        <mxCell id="dKyvRn0tBp2sTU8OZSxu-110" value="" style="endArrow=none;html=1;rounded=0;exitX=1.002;exitY=0.343;exitDx=0;exitDy=0;exitPerimeter=0;" parent="I8PAkS4NoRZ0HZzqsZVm-1" source="dKyvRn0tBp2sTU8OZSxu-107" edge="1">
          <mxGeometry width="50" height="50" relative="1" as="geometry">
            <mxPoint x="260" y="430" as="sourcePoint" />
            <mxPoint x="270" y="360" as="targetPoint" />
          </mxGeometry>
        </mxCell>
        <mxCell id="dKyvRn0tBp2sTU8OZSxu-111" value="Brand" style="text;html=1;strokeColor=none;fillColor=none;align=center;verticalAlign=middle;whiteSpace=wrap;rounded=0;" parent="I8PAkS4NoRZ0HZzqsZVm-1" vertex="1">
          <mxGeometry x="180" y="320" width="60" height="30" as="geometry" />
        </mxCell>
        <mxCell id="dKyvRn0tBp2sTU8OZSxu-112" value="Model" style="text;html=1;strokeColor=none;fillColor=none;align=center;verticalAlign=middle;whiteSpace=wrap;rounded=0;" parent="I8PAkS4NoRZ0HZzqsZVm-1" vertex="1">
          <mxGeometry x="310" y="320" width="60" height="30" as="geometry" />
        </mxCell>
        <mxCell id="dKyvRn0tBp2sTU8OZSxu-113" value="Model_id" style="rounded=1;whiteSpace=wrap;html=1;" parent="I8PAkS4NoRZ0HZzqsZVm-1" vertex="1">
          <mxGeometry x="290" y="350" width="100" height="30" as="geometry" />
        </mxCell>
        <mxCell id="dKyvRn0tBp2sTU8OZSxu-114" value="Model_name" style="rounded=1;whiteSpace=wrap;html=1;" parent="I8PAkS4NoRZ0HZzqsZVm-1" vertex="1">
          <mxGeometry x="290" y="390" width="100" height="30" as="geometry" />
        </mxCell>
        <mxCell id="dKyvRn0tBp2sTU8OZSxu-115" value="model_id" style="rounded=1;whiteSpace=wrap;html=1;" parent="I8PAkS4NoRZ0HZzqsZVm-1" vertex="1">
          <mxGeometry x="290" y="430" width="100" height="30" as="geometry" />
        </mxCell>
        <mxCell id="dKyvRn0tBp2sTU8OZSxu-117" value="" style="endArrow=classic;html=1;rounded=0;" parent="I8PAkS4NoRZ0HZzqsZVm-1" edge="1">
          <mxGeometry width="50" height="50" relative="1" as="geometry">
            <mxPoint x="400" y="360" as="sourcePoint" />
            <mxPoint x="390" y="400" as="targetPoint" />
            <Array as="points">
              <mxPoint x="400" y="400" />
            </Array>
          </mxGeometry>
        </mxCell>
        <mxCell id="dKyvRn0tBp2sTU8OZSxu-118" value="" style="endArrow=none;html=1;rounded=0;exitX=1.002;exitY=0.343;exitDx=0;exitDy=0;exitPerimeter=0;" parent="I8PAkS4NoRZ0HZzqsZVm-1" source="dKyvRn0tBp2sTU8OZSxu-113" edge="1">
          <mxGeometry width="50" height="50" relative="1" as="geometry">
            <mxPoint x="390" y="430" as="sourcePoint" />
            <mxPoint x="410" y="360" as="targetPoint" />
          </mxGeometry>
        </mxCell>
        <mxCell id="dKyvRn0tBp2sTU8OZSxu-119" value="" style="endArrow=classic;html=1;rounded=0;" parent="I8PAkS4NoRZ0HZzqsZVm-1" edge="1">
          <mxGeometry width="50" height="50" relative="1" as="geometry">
            <mxPoint x="410" y="360" as="sourcePoint" />
            <mxPoint x="390" y="440" as="targetPoint" />
            <Array as="points">
              <mxPoint x="410" y="440" />
            </Array>
          </mxGeometry>
        </mxCell>
        <mxCell id="dKyvRn0tBp2sTU8OZSxu-121" value="Vehicles" style="text;html=1;strokeColor=none;fillColor=none;align=center;verticalAlign=middle;whiteSpace=wrap;rounded=0;" parent="I8PAkS4NoRZ0HZzqsZVm-1" vertex="1">
          <mxGeometry x="450" y="320" width="60" height="30" as="geometry" />
        </mxCell>
        <mxCell id="dKyvRn0tBp2sTU8OZSxu-122" value="Vehicle_id" style="rounded=1;whiteSpace=wrap;html=1;" parent="I8PAkS4NoRZ0HZzqsZVm-1" vertex="1">
          <mxGeometry x="430" y="350" width="100" height="30" as="geometry" />
        </mxCell>
        <mxCell id="dKyvRn0tBp2sTU8OZSxu-123" value="Model" style="rounded=1;whiteSpace=wrap;html=1;" parent="I8PAkS4NoRZ0HZzqsZVm-1" vertex="1">
          <mxGeometry x="430" y="390" width="100" height="30" as="geometry" />
        </mxCell>
        <mxCell id="dKyvRn0tBp2sTU8OZSxu-124" value="Released" style="rounded=1;whiteSpace=wrap;html=1;" parent="I8PAkS4NoRZ0HZzqsZVm-1" vertex="1">
          <mxGeometry x="430" y="430" width="100" height="30" as="geometry" />
        </mxCell>
        <mxCell id="dKyvRn0tBp2sTU8OZSxu-125" value="Millage" style="rounded=1;whiteSpace=wrap;html=1;" parent="I8PAkS4NoRZ0HZzqsZVm-1" vertex="1">
          <mxGeometry x="430" y="470" width="100" height="30" as="geometry" />
        </mxCell>
        <mxCell id="dKyvRn0tBp2sTU8OZSxu-126" value="Color_id" style="rounded=1;whiteSpace=wrap;html=1;" parent="I8PAkS4NoRZ0HZzqsZVm-1" vertex="1">
          <mxGeometry x="430" y="510" width="100" height="30" as="geometry" />
        </mxCell>
        <mxCell id="dKyvRn0tBp2sTU8OZSxu-127" value="Engine_code" style="rounded=1;whiteSpace=wrap;html=1;" parent="I8PAkS4NoRZ0HZzqsZVm-1" vertex="1">
          <mxGeometry x="430" y="550" width="100" height="30" as="geometry" />
        </mxCell>
        <mxCell id="dKyvRn0tBp2sTU8OZSxu-128" value="Gearbox_type" style="rounded=1;whiteSpace=wrap;html=1;" parent="I8PAkS4NoRZ0HZzqsZVm-1" vertex="1">
          <mxGeometry x="430" y="590" width="100" height="30" as="geometry" />
        </mxCell>
        <mxCell id="dKyvRn0tBp2sTU8OZSxu-129" value="" style="endArrow=classic;html=1;rounded=0;" parent="I8PAkS4NoRZ0HZzqsZVm-1" edge="1">
          <mxGeometry width="50" height="50" relative="1" as="geometry">
            <mxPoint x="540" y="360" as="sourcePoint" />
            <mxPoint x="530" y="400" as="targetPoint" />
            <Array as="points">
              <mxPoint x="540" y="400" />
            </Array>
          </mxGeometry>
        </mxCell>
        <mxCell id="dKyvRn0tBp2sTU8OZSxu-130" value="" style="endArrow=none;html=1;rounded=0;exitX=1.002;exitY=0.343;exitDx=0;exitDy=0;exitPerimeter=0;" parent="I8PAkS4NoRZ0HZzqsZVm-1" source="dKyvRn0tBp2sTU8OZSxu-122" edge="1">
          <mxGeometry width="50" height="50" relative="1" as="geometry">
            <mxPoint x="530" y="430" as="sourcePoint" />
            <mxPoint x="600" y="360" as="targetPoint" />
          </mxGeometry>
        </mxCell>
        <mxCell id="dKyvRn0tBp2sTU8OZSxu-131" value="" style="endArrow=classic;html=1;rounded=0;" parent="I8PAkS4NoRZ0HZzqsZVm-1" edge="1">
          <mxGeometry width="50" height="50" relative="1" as="geometry">
            <mxPoint x="550" y="360" as="sourcePoint" />
            <mxPoint x="530" y="440" as="targetPoint" />
            <Array as="points">
              <mxPoint x="550" y="440" />
            </Array>
          </mxGeometry>
        </mxCell>
        <mxCell id="dKyvRn0tBp2sTU8OZSxu-132" value="" style="endArrow=classic;html=1;rounded=0;entryX=1;entryY=0.333;entryDx=0;entryDy=0;entryPerimeter=0;" parent="I8PAkS4NoRZ0HZzqsZVm-1" target="dKyvRn0tBp2sTU8OZSxu-125" edge="1">
          <mxGeometry width="50" height="50" relative="1" as="geometry">
            <mxPoint x="560" y="360" as="sourcePoint" />
            <mxPoint x="538.5999999999999" y="450.11" as="targetPoint" />
            <Array as="points">
              <mxPoint x="560" y="480" />
            </Array>
          </mxGeometry>
        </mxCell>
        <mxCell id="dKyvRn0tBp2sTU8OZSxu-133" value="" style="endArrow=classic;html=1;rounded=0;entryX=1.005;entryY=0.336;entryDx=0;entryDy=0;entryPerimeter=0;" parent="I8PAkS4NoRZ0HZzqsZVm-1" target="dKyvRn0tBp2sTU8OZSxu-126" edge="1">
          <mxGeometry width="50" height="50" relative="1" as="geometry">
            <mxPoint x="570" y="360" as="sourcePoint" />
            <mxPoint x="548.5999999999999" y="440.11" as="targetPoint" />
            <Array as="points">
              <mxPoint x="570" y="520" />
            </Array>
          </mxGeometry>
        </mxCell>
        <mxCell id="dKyvRn0tBp2sTU8OZSxu-134" value="" style="endArrow=classic;html=1;rounded=0;entryX=1.009;entryY=0.304;entryDx=0;entryDy=0;entryPerimeter=0;" parent="I8PAkS4NoRZ0HZzqsZVm-1" target="dKyvRn0tBp2sTU8OZSxu-127" edge="1">
          <mxGeometry width="50" height="50" relative="1" as="geometry">
            <mxPoint x="580" y="360" as="sourcePoint" />
            <mxPoint x="558.5999999999999" y="440.11" as="targetPoint" />
            <Array as="points">
              <mxPoint x="580" y="559" />
            </Array>
          </mxGeometry>
        </mxCell>
        <mxCell id="dKyvRn0tBp2sTU8OZSxu-135" value="" style="endArrow=classic;html=1;rounded=0;entryX=1.015;entryY=0.368;entryDx=0;entryDy=0;entryPerimeter=0;" parent="I8PAkS4NoRZ0HZzqsZVm-1" target="dKyvRn0tBp2sTU8OZSxu-128" edge="1">
          <mxGeometry width="50" height="50" relative="1" as="geometry">
            <mxPoint x="590" y="360" as="sourcePoint" />
            <mxPoint x="568.5999999999999" y="480.11" as="targetPoint" />
            <Array as="points">
              <mxPoint x="590" y="601" />
            </Array>
          </mxGeometry>
        </mxCell>
        <mxCell id="dKyvRn0tBp2sTU8OZSxu-136" value="Condition" style="rounded=1;whiteSpace=wrap;html=1;" parent="I8PAkS4NoRZ0HZzqsZVm-1" vertex="1">
          <mxGeometry x="430" y="630" width="100" height="30" as="geometry" />
        </mxCell>
        <mxCell id="dKyvRn0tBp2sTU8OZSxu-137" value="" style="endArrow=classic;html=1;rounded=0;entryX=1;entryY=0.368;entryDx=0;entryDy=0;entryPerimeter=0;" parent="I8PAkS4NoRZ0HZzqsZVm-1" target="dKyvRn0tBp2sTU8OZSxu-136" edge="1">
          <mxGeometry width="50" height="50" relative="1" as="geometry">
            <mxPoint x="599" y="360" as="sourcePoint" />
            <mxPoint x="539.9999999999999" y="641.04" as="targetPoint" />
            <Array as="points">
              <mxPoint x="598.5" y="641" />
            </Array>
          </mxGeometry>
        </mxCell>
        <mxCell id="dKyvRn0tBp2sTU8OZSxu-138" value="Engine" style="text;html=1;strokeColor=none;fillColor=none;align=center;verticalAlign=middle;whiteSpace=wrap;rounded=0;" parent="I8PAkS4NoRZ0HZzqsZVm-1" vertex="1">
          <mxGeometry x="640" y="320" width="60" height="30" as="geometry" />
        </mxCell>
        <mxCell id="dKyvRn0tBp2sTU8OZSxu-139" value="Engine_code" style="rounded=1;whiteSpace=wrap;html=1;" parent="I8PAkS4NoRZ0HZzqsZVm-1" vertex="1">
          <mxGeometry x="620" y="350" width="100" height="30" as="geometry" />
        </mxCell>
        <mxCell id="dKyvRn0tBp2sTU8OZSxu-140" value="Engine_type" style="rounded=1;whiteSpace=wrap;html=1;" parent="I8PAkS4NoRZ0HZzqsZVm-1" vertex="1">
          <mxGeometry x="620" y="390" width="100" height="30" as="geometry" />
        </mxCell>
        <mxCell id="dKyvRn0tBp2sTU8OZSxu-141" value="Engine_power" style="rounded=1;whiteSpace=wrap;html=1;" parent="I8PAkS4NoRZ0HZzqsZVm-1" vertex="1">
          <mxGeometry x="620" y="430" width="100" height="30" as="geometry" />
        </mxCell>
        <mxCell id="dKyvRn0tBp2sTU8OZSxu-142" value="Engine_capacity" style="rounded=1;whiteSpace=wrap;html=1;" parent="I8PAkS4NoRZ0HZzqsZVm-1" vertex="1">
          <mxGeometry x="620" y="470" width="100" height="30" as="geometry" />
        </mxCell>
        <mxCell id="dKyvRn0tBp2sTU8OZSxu-143" value="" style="endArrow=classic;html=1;rounded=0;" parent="I8PAkS4NoRZ0HZzqsZVm-1" edge="1">
          <mxGeometry width="50" height="50" relative="1" as="geometry">
            <mxPoint x="730" y="360" as="sourcePoint" />
            <mxPoint x="720" y="400" as="targetPoint" />
            <Array as="points">
              <mxPoint x="730" y="400" />
            </Array>
          </mxGeometry>
        </mxCell>
        <mxCell id="dKyvRn0tBp2sTU8OZSxu-144" value="" style="endArrow=none;html=1;rounded=0;exitX=1.002;exitY=0.343;exitDx=0;exitDy=0;exitPerimeter=0;" parent="I8PAkS4NoRZ0HZzqsZVm-1" source="dKyvRn0tBp2sTU8OZSxu-139" edge="1">
          <mxGeometry width="50" height="50" relative="1" as="geometry">
            <mxPoint x="720" y="430" as="sourcePoint" />
            <mxPoint x="750" y="360" as="targetPoint" />
          </mxGeometry>
        </mxCell>
        <mxCell id="dKyvRn0tBp2sTU8OZSxu-145" value="" style="endArrow=classic;html=1;rounded=0;" parent="I8PAkS4NoRZ0HZzqsZVm-1" edge="1">
          <mxGeometry width="50" height="50" relative="1" as="geometry">
            <mxPoint x="740" y="360" as="sourcePoint" />
            <mxPoint x="720" y="440" as="targetPoint" />
            <Array as="points">
              <mxPoint x="740" y="440" />
            </Array>
          </mxGeometry>
        </mxCell>
        <mxCell id="dKyvRn0tBp2sTU8OZSxu-146" value="" style="endArrow=classic;html=1;rounded=0;entryX=1;entryY=0.333;entryDx=0;entryDy=0;entryPerimeter=0;" parent="I8PAkS4NoRZ0HZzqsZVm-1" target="dKyvRn0tBp2sTU8OZSxu-142" edge="1">
          <mxGeometry width="50" height="50" relative="1" as="geometry">
            <mxPoint x="750" y="360" as="sourcePoint" />
            <mxPoint x="728.5999999999999" y="450.11" as="targetPoint" />
            <Array as="points">
              <mxPoint x="750" y="480" />
            </Array>
          </mxGeometry>
        </mxCell>
        <mxCell id="dKyvRn0tBp2sTU8OZSxu-147" value="&lt;font style=&quot;font-size: 12px&quot;&gt;id&lt;/font&gt;" style="rounded=1;whiteSpace=wrap;html=1;" parent="I8PAkS4NoRZ0HZzqsZVm-1" vertex="1">
          <mxGeometry x="10" y="550" width="100" height="30" as="geometry" />
        </mxCell>
        <mxCell id="dKyvRn0tBp2sTU8OZSxu-148" value="engine_type" style="rounded=1;whiteSpace=wrap;html=1;" parent="I8PAkS4NoRZ0HZzqsZVm-1" vertex="1">
          <mxGeometry x="10" y="590" width="100" height="30" as="geometry" />
        </mxCell>
        <mxCell id="dKyvRn0tBp2sTU8OZSxu-149" value="" style="endArrow=classic;html=1;rounded=0;" parent="I8PAkS4NoRZ0HZzqsZVm-1" edge="1">
          <mxGeometry width="50" height="50" relative="1" as="geometry">
            <mxPoint x="120" y="560" as="sourcePoint" />
            <mxPoint x="110" y="600" as="targetPoint" />
            <Array as="points">
              <mxPoint x="120" y="600" />
            </Array>
          </mxGeometry>
        </mxCell>
        <mxCell id="dKyvRn0tBp2sTU8OZSxu-150" value="" style="endArrow=none;html=1;rounded=0;exitX=1.002;exitY=0.343;exitDx=0;exitDy=0;exitPerimeter=0;" parent="I8PAkS4NoRZ0HZzqsZVm-1" source="dKyvRn0tBp2sTU8OZSxu-147" edge="1">
          <mxGeometry width="50" height="50" relative="1" as="geometry">
            <mxPoint x="110" y="630" as="sourcePoint" />
            <mxPoint x="120" y="560" as="targetPoint" />
          </mxGeometry>
        </mxCell>
        <mxCell id="dKyvRn0tBp2sTU8OZSxu-151" value="Engine_type" style="text;html=1;strokeColor=none;fillColor=none;align=center;verticalAlign=middle;whiteSpace=wrap;rounded=0;" parent="I8PAkS4NoRZ0HZzqsZVm-1" vertex="1">
          <mxGeometry x="30" y="520" width="60" height="30" as="geometry" />
        </mxCell>
        <mxCell id="dKyvRn0tBp2sTU8OZSxu-152" value="&lt;font style=&quot;font-size: 12px&quot;&gt;id&lt;/font&gt;" style="rounded=1;whiteSpace=wrap;html=1;" parent="I8PAkS4NoRZ0HZzqsZVm-1" vertex="1">
          <mxGeometry x="140" y="550" width="100" height="30" as="geometry" />
        </mxCell>
        <mxCell id="dKyvRn0tBp2sTU8OZSxu-153" value="gearbox_type" style="rounded=1;whiteSpace=wrap;html=1;" parent="I8PAkS4NoRZ0HZzqsZVm-1" vertex="1">
          <mxGeometry x="140" y="590" width="100" height="30" as="geometry" />
        </mxCell>
        <mxCell id="dKyvRn0tBp2sTU8OZSxu-154" value="" style="endArrow=classic;html=1;rounded=0;" parent="I8PAkS4NoRZ0HZzqsZVm-1" edge="1">
          <mxGeometry width="50" height="50" relative="1" as="geometry">
            <mxPoint x="250.00000000000006" y="560" as="sourcePoint" />
            <mxPoint x="240.00000000000006" y="600" as="targetPoint" />
            <Array as="points">
              <mxPoint x="250" y="600" />
            </Array>
          </mxGeometry>
        </mxCell>
        <mxCell id="dKyvRn0tBp2sTU8OZSxu-155" value="" style="endArrow=none;html=1;rounded=0;exitX=1.002;exitY=0.343;exitDx=0;exitDy=0;exitPerimeter=0;" parent="I8PAkS4NoRZ0HZzqsZVm-1" source="dKyvRn0tBp2sTU8OZSxu-152" edge="1">
          <mxGeometry width="50" height="50" relative="1" as="geometry">
            <mxPoint x="240" y="630" as="sourcePoint" />
            <mxPoint x="250.00000000000006" y="560" as="targetPoint" />
          </mxGeometry>
        </mxCell>
        <mxCell id="dKyvRn0tBp2sTU8OZSxu-156" value="gearbox_type" style="text;html=1;strokeColor=none;fillColor=none;align=center;verticalAlign=middle;whiteSpace=wrap;rounded=0;" parent="I8PAkS4NoRZ0HZzqsZVm-1" vertex="1">
          <mxGeometry x="160" y="520" width="60" height="30" as="geometry" />
        </mxCell>
        <mxCell id="dKyvRn0tBp2sTU8OZSxu-167" value="&lt;font style=&quot;font-size: 12px&quot;&gt;id&lt;/font&gt;" style="rounded=1;whiteSpace=wrap;html=1;" parent="I8PAkS4NoRZ0HZzqsZVm-1" vertex="1">
          <mxGeometry x="10" y="670" width="100" height="30" as="geometry" />
        </mxCell>
        <mxCell id="dKyvRn0tBp2sTU8OZSxu-168" value="condition" style="rounded=1;whiteSpace=wrap;html=1;" parent="I8PAkS4NoRZ0HZzqsZVm-1" vertex="1">
          <mxGeometry x="10" y="710" width="100" height="30" as="geometry" />
        </mxCell>
        <mxCell id="dKyvRn0tBp2sTU8OZSxu-169" value="" style="endArrow=classic;html=1;rounded=0;" parent="I8PAkS4NoRZ0HZzqsZVm-1" edge="1">
          <mxGeometry width="50" height="50" relative="1" as="geometry">
            <mxPoint x="120.00000000000006" y="680" as="sourcePoint" />
            <mxPoint x="110.00000000000006" y="720" as="targetPoint" />
            <Array as="points">
              <mxPoint x="120" y="720" />
            </Array>
          </mxGeometry>
        </mxCell>
        <mxCell id="dKyvRn0tBp2sTU8OZSxu-170" value="" style="endArrow=none;html=1;rounded=0;exitX=1.002;exitY=0.343;exitDx=0;exitDy=0;exitPerimeter=0;" parent="I8PAkS4NoRZ0HZzqsZVm-1" source="dKyvRn0tBp2sTU8OZSxu-167" edge="1">
          <mxGeometry width="50" height="50" relative="1" as="geometry">
            <mxPoint x="110" y="750" as="sourcePoint" />
            <mxPoint x="120.00000000000006" y="680" as="targetPoint" />
          </mxGeometry>
        </mxCell>
        <mxCell id="dKyvRn0tBp2sTU8OZSxu-171" value="car_condition" style="text;html=1;strokeColor=none;fillColor=none;align=center;verticalAlign=middle;whiteSpace=wrap;rounded=0;" parent="I8PAkS4NoRZ0HZzqsZVm-1" vertex="1">
          <mxGeometry x="30" y="640" width="60" height="30" as="geometry" />
        </mxCell>
        <mxCell id="dKyvRn0tBp2sTU8OZSxu-172" value="Color_id" style="rounded=1;whiteSpace=wrap;html=1;" parent="I8PAkS4NoRZ0HZzqsZVm-1" vertex="1">
          <mxGeometry x="270" y="550" width="100" height="30" as="geometry" />
        </mxCell>
        <mxCell id="dKyvRn0tBp2sTU8OZSxu-173" value="Color_name" style="rounded=1;whiteSpace=wrap;html=1;" parent="I8PAkS4NoRZ0HZzqsZVm-1" vertex="1">
          <mxGeometry x="270" y="590" width="100" height="30" as="geometry" />
        </mxCell>
        <mxCell id="dKyvRn0tBp2sTU8OZSxu-174" value="" style="endArrow=classic;html=1;rounded=0;" parent="I8PAkS4NoRZ0HZzqsZVm-1" edge="1">
          <mxGeometry width="50" height="50" relative="1" as="geometry">
            <mxPoint x="380.00000000000006" y="560" as="sourcePoint" />
            <mxPoint x="370.00000000000006" y="600" as="targetPoint" />
            <Array as="points">
              <mxPoint x="380" y="600" />
            </Array>
          </mxGeometry>
        </mxCell>
        <mxCell id="dKyvRn0tBp2sTU8OZSxu-175" value="" style="endArrow=none;html=1;rounded=0;exitX=1.002;exitY=0.343;exitDx=0;exitDy=0;exitPerimeter=0;" parent="I8PAkS4NoRZ0HZzqsZVm-1" source="dKyvRn0tBp2sTU8OZSxu-172" edge="1">
          <mxGeometry width="50" height="50" relative="1" as="geometry">
            <mxPoint x="370" y="630" as="sourcePoint" />
            <mxPoint x="380.00000000000006" y="560" as="targetPoint" />
          </mxGeometry>
        </mxCell>
        <mxCell id="dKyvRn0tBp2sTU8OZSxu-176" value="Color" style="text;html=1;strokeColor=none;fillColor=none;align=center;verticalAlign=middle;whiteSpace=wrap;rounded=0;" parent="I8PAkS4NoRZ0HZzqsZVm-1" vertex="1">
          <mxGeometry x="290" y="520" width="60" height="30" as="geometry" />
        </mxCell>
      </root>
    </mxGraphModel>
  </diagram>
</mxfile>
